{"title":"The Lord of the Rings, The Two Towers 2002 DVDrip English Klam","uid":6864167,"size":2629706113,"categoryP":"video","categoryS":"movies","magnet":"?xt=urn:btih:f4337858179039dd6d6fc435be47e322f7973bdd&amp;dn=The+Lord+of+the+Rings%2C+The+Two+Towers+2002+DVDrip+English+Klam&amp;tr=udp%3A%2F%2Ftracker.openbittorrent.com%3A80&amp;tr=udp%3A%2F%2Fopen.demonii.com%3A1337&amp;tr=udp%3A%2F%2Ftracker.coppersurfer.tk%3A6969&amp;tr=udp%3A%2F%2Fexodus.desync.com%3A6969","seeders":1,"leechers":0,"uploader":"Klambake","files":-1,"time":1323029143,"description":"With: Elijah Wood, John Rhys-Davies and Viggo Mortensen\n\nDe hobbits Frodo en Sam trekken verder richting Mordor om hun taak, het vernietigen van de machtige Ene Ring waar de slechte Sauron naar op zoek is, te volbrengen. Hierbij krijgen ze hulp uit onverwachte hoek. Ondertussen proberen Merry en Pippin te ontsnappen uit de handen van een Uruk-Hai leger en helpen Legolas, Aragorn en Gimli koning Theoden van Rohan in zijn strijd tegen de legers van Saruman.\n\nFrodo and Sam continue on to Mordor in their mission to destroy the One Ring. Whilst their former companions make new allies and launch an assault on Isengard. \n\n------------------------ Dutch Friends ------------------------\n---------------------------------------------------------------\n- Bezoek ook eens mijn vrienden op: &lt;a href=&quot; http://www.Film-Test.nl&quot; rel=&quot;nofollow&quot; target=&quot;_NEW&quot;&gt; http://www.Film-Test.nl&lt;/a&gt; --\n----- voor mijn Nederlandse Sync. ondertitels ---- en meer ----\n------- http://www.Film-Test.nl ---- voor Films en meer -------\n---------------------------------------------------------------\n\nGeneral:\n\nComplete name                    : The Two Towers\\02The Two Towers.avi\nFormat                           : AVI\nFormat/Info                      : Audio Video Interleave\nFile size                        : 2.45 GiB\nDuration                         : 2h 52mn\nOverall bit rate                 : 2 038 Kbps\n\nVideo:\n\nFormat                           : MPEG-4 Visual\nFormat profile                   : Simple@L3\nFormat settings, BVOP            : No\nFormat settings, QPel            : No\nFormat settings, GMC             : No warppoints\nFormat settings, Matrix          : Default (H.263)\nCodec ID                         : XVID\nCodec ID/Hint                    : XviD\nDuration                         : 2h 52mn\nBit rate                         : 1 579 Kbps\nWidth                            : 720 pixels\nHeight                           : 304 pixels\nDisplay aspect ratio             : 2.35:1\nFrame rate                       : 25.000 fps\nColor space                      : YUV\nChroma subsampling               : 4:2:0\nBit depth                        : 8 bits\nScan type                        : Progressive\nCompression mode                 : Lossy\nBits/(Pixel*Frame)               : 0.289\nStream size                      : 1.90 GiB (77%)\nWriting library                  : XviD 1.1.2 (UTC 2006-11-01)\n\nAudio:\n\nFormat                           : AC-3\nFormat/Info                      : Audio Coding 3\nMode extension                   : CM (complete main)\nCodec ID                         : 2000\nDuration                         : 2h 52mn\nBit rate mode                    : Constant\nBit rate                         : 448 Kbps\nChannel(s)                       : 6 channels\nChannel positions                : Front: L C R, Side: L R, LFE\nSampling rate                    : 48.0 KHz\nBit depth                        : 16 bits\nCompression mode                 : Lossy\nStream size                      : 551 MiB (22%)\nAlignment                        : Aligned on interleaves\nInterleave, duration             : 32 ms (0.80 video frame)\nInterleave, preload duration     : 64 ms\n\n","torrent":{"xt":"urn:btih:f4337858179039dd6d6fc435be47e322f7973bdd","amp;dn":"The+Lord+of+the+Rings%2C+The+Two+Towers+2002+DVDrip+English+Klam","amp;tr":["udp%3A%2F%2Ftracker.openbittorrent.com%3A80","udp%3A%2F%2Fopen.demonii.com%3A1337","udp%3A%2F%2Ftracker.coppersurfer.tk%3A6969","udp%3A%2F%2Fexodus.desync.com%3A6969"],"infoHash":"f4337858179039dd6d6fc435be47e322f7973bdd","infoHashBuffer":{"type":"Buffer","data":[244,51,120,88,23,144,57,221,109,111,196,53,190,71,227,34,247,151,59,221]},"announce":[],"urlList":[]}}